<svg xmlns="http://www.w3.org/2000/svg" viewBox="2.3 -0.2 9.3 10.2">
  <path d="M 2.3 4.8 Q 2.3 4.6 2.5 4.5 L 5.2 3.5 Q 5.5 3.4 5.8 3.5 L 8.1 4.3 L 8.1 0 Q 8.1 -0.2 8.3 -0.1 L 11.5 1.6 Q 11.6 1.65 11.6 1.8 L 11.6 4.8 Q 11.6 5.1 11.3 5 L 8.7 3.8 L 8.7 8.3 Q 8.7 8.5 8.5 8.6 L 5.7 9.9 Q 5.5 10 5.3 9.9 L 2.5 8.6 Q 2.3 8.5 2.3 8.3 Z M 3.2 4.9 Q 2.9 5 3.2 5.1 L 5.2 5.9 Q 5.5 6 5.8 5.9 L 7.7 5.1 Q 8 5 7.7 4.9 L 5.8 4.2 Q 5.5 4.1 5.2 4.2 Z M 3.1 5.8 Q 2.9 5.7 2.9 5.8 L 2.9 7.8 Q 2.9 8 3.1 8.1 L 5 9 Q 5.2 9.1 5.2 9 L 5.2 6.8 Q 5.2 6.6 4.9 6.5 Z M 6.1 6.5 Q 5.8 6.6 5.8 6.8 L 5.8 9 Q 5.8 9.1 6 9 L 7.9 8.1 Q 8.1 8 8.1 7.8 L 8.1 5.8 Q 8.1 5.7 7.9 5.8 Z M 8.9 0.9 Q 8.7 0.8 8.7 1 L 8.7 2.9 Q 8.7 3.1 8.9 3.2 L 10.9 4.1 Q 11 4.15 11 4 L 11 2.2 Q 11 2 10.8 1.9 Z" fill="#ffa834"/>
</svg>